<svg xmlns="http://www.w3.org/2000/svg" viewBox="0 0 32 32">
  <rect width="32" height="32" rx="8" fill="#1a0a2e"/>
  <!-- Chausson de danse dessiné en SVG pur -->
  <!-- Semelle / sole -->
  <ellipse cx="16" cy="25" rx="11" ry="2.5" fill="#c4789a" opacity=".7"/>
  <!-- Corps du chausson -->
  <path d="M6 25 Q5 18 9 14 Q13 10 17 10 Q21 10 23 13 Q25 16 24 20 Q23 23 20 25 Z" fill="#e8a0be"/>
  <!-- Brillance -->
  <path d="M10 14 Q12 12 15 12 Q17 12 18 13 Q16 13 13 16 Z" fill="white" opacity=".25"/>
  <!-- Ruban / ribbon -->
  <path d="M18 13 Q22 10 24 8" stroke="#c4789a" stroke-width="1.5" fill="none" stroke-linecap="round"/>
  <path d="M19 14 Q24 12 26 11" stroke="#c4789a" stroke-width="1.5" fill="none" stroke-linecap="round"/>
  <!-- Pointe -->
  <ellipse cx="23.5" cy="21" rx="2" ry="3.5" fill="#d4889e" transform="rotate(20,23.5,21)"/>
</svg>
